<svg width="30" height="30" viewBox="0 0 30 30" fill="none" xmlns="http://www.w3.org/2000/svg">
<path d="M26.25 11.25V8C26.25 6.34375 25.15 5 23.795 5H3.705C2.34875 5 1.25 6.34375 1.25 8V22C1.25 23.6563 2.35 25 3.705 25H23.795C25.1512 25 26.25 23.6563 26.25 22V18.75M25 15H25.0125M20.75 11.25H26.75C27.2804 11.25 27.7891 11.4607 28.1642 11.8358C28.5393 12.2109 28.75 12.7196 28.75 13.25V16.75C28.75 17.2804 28.5393 17.7891 28.1642 18.1642C27.7891 18.5393 27.2804 18.75 26.75 18.75H20.75C20.2196 18.75 19.7109 18.5393 19.3358 18.1642C18.9607 17.7891 18.75 17.2804 18.75 16.75V13.25C18.75 12.7196 18.9607 12.2109 19.3358 11.8358C19.7109 11.4607 20.2196 11.25 20.75 11.25Z" stroke="black" stroke-width="1.9" stroke-linecap="round" stroke-linejoin="round"/>
</svg>
