<svg width="35" height="35" viewBox="0 0 35 35" fill="none" xmlns="http://www.w3.org/2000/svg">
<path d="M17.4997 20.4168C19.1105 20.4168 20.4163 19.111 20.4163 17.5002C20.4163 15.8893 19.1105 14.5835 17.4997 14.5835C15.8888 14.5835 14.583 15.8893 14.583 17.5002C14.583 19.111 15.8888 20.4168 17.4997 20.4168Z" stroke="black" stroke-width="1.9"/>
<path d="M7.87339 8.57493L8.42027 7.62701C8.20556 7.50315 7.95514 7.45589 7.71005 7.49299C7.46497 7.53008 7.23975 7.64932 7.07131 7.83118L7.87339 8.57493ZM4.95818 13.6266L3.91256 13.3028C3.83941 13.5397 3.84893 13.7945 3.93955 14.0253C4.03017 14.2561 4.19651 14.4492 4.41131 14.5731L4.95818 13.6266ZM4.95527 21.3718L4.40839 20.4239C4.19355 20.548 4.0273 20.7415 3.93693 20.9726C3.84657 21.2037 3.83746 21.4586 3.9111 21.6956L4.95527 21.3718ZM7.87193 26.4235L7.06985 27.1672C7.23829 27.3491 7.46351 27.4683 7.7086 27.5054C7.95368 27.5425 8.2041 27.4952 8.41881 27.3714L7.87193 26.4235ZM14.5803 30.2953H13.4865C13.4865 30.8058 13.8409 31.2476 14.3382 31.3614L14.5803 30.2953ZM20.4151 30.2983L20.6586 31.3658C20.9003 31.3105 21.1161 31.1748 21.2706 30.9809C21.4251 30.7869 21.5091 30.5462 21.5088 30.2983H20.4151ZM27.1249 26.4249L26.578 27.3728C26.7927 27.4967 27.0431 27.544 27.2882 27.5069C27.5333 27.4698 27.7585 27.3505 27.9269 27.1687L27.1249 26.4249ZM30.0386 21.3703L31.0842 21.6941C31.1574 21.4572 31.1479 21.2025 31.0572 20.9717C30.9666 20.7409 30.8003 20.5477 30.5855 20.4239L30.0386 21.3703ZM30.0415 13.6251L30.5884 14.5731C30.8032 14.4489 30.9695 14.2554 31.0599 14.0244C31.1502 13.7933 31.1593 13.5383 31.0857 13.3014L30.0415 13.6251ZM27.1249 8.57201L27.9269 7.82972C27.7585 7.64787 27.5333 7.52862 27.2882 7.49153C27.0431 7.45443 26.7927 7.50169 26.578 7.62555L27.1249 8.57201ZM20.4165 4.70305H21.5103C21.5102 4.45534 21.4261 4.21499 21.2716 4.02133C21.1172 3.82766 20.9016 3.69217 20.6601 3.63701L20.4165 4.70305ZM14.5832 4.70014L14.3396 3.63263C14.0979 3.68785 13.8821 3.82356 13.7276 4.01752C13.5731 4.21148 13.4892 4.45218 13.4894 4.70014H14.5832ZM6.00381 13.9503C6.53459 12.225 7.44725 10.6414 8.67402 9.31722L7.06985 7.82972C5.62019 9.39447 4.54155 11.2656 3.91402 13.3043L6.00381 13.9503ZM7.08006 23.5156C6.62987 22.7367 6.26791 21.91 6.00089 21.051L3.91256 21.697C4.22733 22.7121 4.65435 23.6889 5.18568 24.6093L7.08006 23.5156ZM8.67548 25.6826C8.06478 25.0218 7.52966 24.295 7.08006 23.5156L5.18568 24.6093C5.71663 25.5298 6.3486 26.3868 7.06985 27.1672L8.67548 25.6826ZM20.173 29.2337C18.4133 29.6342 16.586 29.6332 14.8267 29.2308L14.3396 31.3628C16.4194 31.839 18.5797 31.8405 20.6601 31.3672L20.173 29.2337ZM28.9959 21.0495C28.4651 22.7748 27.5524 24.3584 26.3257 25.6826L27.9299 27.1701C29.3795 25.6054 30.4581 23.7342 31.0857 21.6956L28.9959 21.0495ZM27.9196 11.4843C28.3776 12.2844 28.7373 13.106 28.9988 13.9489L31.0871 13.3028C30.7724 12.2878 30.3454 11.311 29.814 10.3906L27.9196 11.4843ZM26.3228 9.31722C26.9207 9.96326 27.4573 10.6881 27.9182 11.4843L29.814 10.3906C29.2826 9.46996 28.6487 8.61007 27.9269 7.82972L26.3228 9.31722ZM14.8253 5.76618C16.585 5.36568 18.4123 5.36668 20.1715 5.76909L20.6601 3.63701C18.5803 3.16089 16.4186 3.15939 14.3382 3.63263L14.8253 5.76618ZM15.6755 7.39659V4.69868H13.488V7.39659H15.6755ZM10.7551 8.97451L8.42027 7.62701L7.32652 9.52138L9.65985 10.8689L10.7551 8.97451ZM6.74464 19.0793L4.40985 20.4268L5.5036 22.3212L7.83839 20.9737L6.74464 19.0793ZM7.83839 14.0262L5.50506 12.6801L4.41131 14.576L6.74464 15.922L7.83839 14.0262ZM15.6769 30.2968V27.6033H13.4894V30.2968H15.6769ZM9.66131 24.131L7.32652 25.4785L8.42027 27.3743L10.7536 26.0253L9.66131 24.131ZM27.6732 25.4785L25.3384 24.131L24.2446 26.0253L26.578 27.3728L27.6732 25.4785ZM21.5103 30.2997V27.6033H19.3228V30.3012L21.5103 30.2997ZM29.4961 12.6787L27.1613 14.0262L28.2551 15.922L30.5884 14.5731L29.4961 12.6787ZM30.5869 20.4253L28.2551 19.0778L27.1613 20.9737L29.4946 22.3197L30.5869 20.4253ZM21.5103 7.39659V4.70305H19.3228V7.39659H21.5103ZM26.5794 7.62701L24.2446 8.97451L25.3384 10.8703L27.6732 9.52138L26.5794 7.62701ZM19.3228 7.39659C19.3228 10.4839 22.6653 12.4147 25.3384 10.8703L24.2446 8.97451C23.9676 9.13447 23.6533 9.2187 23.3334 9.21873C23.0135 9.21877 22.6992 9.13461 22.4221 8.9747C22.145 8.8148 21.9148 8.58479 21.7548 8.30778C21.5947 8.03077 21.5104 7.71652 21.5103 7.39659H19.3228ZM27.1613 14.0262C24.4882 15.5706 24.4882 19.4293 27.1613 20.9737L28.2551 19.0778C27.978 18.9178 27.7479 18.6877 27.5879 18.4106C27.4279 18.1335 27.3437 17.8192 27.3437 17.4992C27.3437 17.1792 27.4279 16.8649 27.5879 16.5878C27.7479 16.3107 27.978 16.0806 28.2551 15.9206L27.1613 14.0262ZM25.3384 24.131C22.6653 22.5866 19.3228 24.516 19.3228 27.6033H21.5103C21.5104 27.2833 21.5947 26.9691 21.7548 26.6921C21.9148 26.4151 22.145 26.1851 22.4221 26.0252C22.6992 25.8652 23.0135 25.7811 23.3334 25.7811C23.6533 25.7812 23.9676 25.8654 24.2446 26.0253L25.3384 24.131ZM15.6769 27.6033C15.6769 24.516 12.3344 22.5866 9.66131 24.131L10.7536 26.0253C11.0307 25.8654 11.3464 25.7812 11.6663 25.7811C11.9862 25.7811 12.3005 25.8652 12.5776 26.0252C12.8547 26.1851 13.0849 26.4151 13.2449 26.6921C13.405 26.9691 13.4893 27.2833 13.4894 27.6033H15.6769ZM7.83839 20.9737C10.5115 19.4293 10.5115 15.5706 7.83839 14.0262L6.74464 15.922C7.02174 16.082 7.25184 16.3121 7.41182 16.5892C7.5718 16.8663 7.65602 17.1807 7.65602 17.5007C7.65602 17.8206 7.5718 18.135 7.41182 18.4121C7.25184 18.6892 7.02174 18.9193 6.74464 19.0793L7.83839 20.9737ZM13.4894 7.39659C13.4893 7.71652 13.405 8.03077 13.2449 8.30778C13.0849 8.58479 12.8547 8.8148 12.5776 8.9747C12.3005 9.13461 11.9862 9.21877 11.6663 9.21873C11.3464 9.2187 11.0321 9.13447 10.7551 8.97451L9.66131 10.8703C12.3344 12.4133 15.6769 10.4839 15.6769 7.39659H13.4894Z" fill="black"/>
</svg>
